<?xml version="1.0" encoding="utf-8"?>
<!-- Generator: Adobe Illustrator 21.0.0, SVG Export Plug-In . SVG Version: 6.00 Build 0)  -->
<svg version="1.1" id="Режим_изоляции"
	 xmlns="http://www.w3.org/2000/svg" xmlns:xlink="http://www.w3.org/1999/xlink" x="0px" y="0px" viewBox="0 0 1071 536.0892"
	 style="enable-background:new 0 0 1071 536.0892;" xml:space="preserve">
<style type="text/css">
	.st0{opacity:0.7;}
	.st1{fill:none;stroke:#FFFFFF;stroke-linejoin:round;stroke-miterlimit:10;}
</style>
<g class="st0">
	<polygon class="st1" points="427.5888,470.0294 427.5888,470.0294 383.3605,396.662 250.6668,506.7639 	"/>
	<polygon class="st1" points="383.3605,396.662 267.6937,407.8863 250.6668,506.7639 	"/>
	<polygon class="st1" points="250.6668,506.7639 350.8451,528.204 427.5888,470.0294 	"/>
	<polygon class="st1" points="350.1555,229.6138 169.3058,177.3832 322.5974,339.6458 	"/>
	<polygon class="st1" points="350.1555,229.6138 322.5974,339.6458 383.3605,396.662 388.0554,335.4653 	"/>
	<polygon class="st1" points="267.6937,407.8863 383.3605,396.662 322.5974,339.6458 	"/>
	<polygon class="st1" points="776.5926,403.1026 683.8264,466.3453 673.8018,524.1011 	"/>
	<polygon class="st1" points="821.1899,315.9647 759.5692,177.4857 722.4261,231.5747 	"/>
	<line class="st1" x1="776.5926" y1="403.1026" x2="821.1899" y2="315.9647"/>
	<polygon class="st1" points="544.6423,281.2816 544.6423,281.2816 680.3303,347.1016 722.4261,231.5747 	"/>
	<polygon class="st1" points="512.2321,396.7465 683.8264,466.3453 544.6423,281.2816 512.2321,396.7465 	"/>
	<polygon class="st1" points="544.6423,281.2816 388.0554,335.4653 512.2321,396.7465 	"/>
	<polygon class="st1" points="427.5888,470.0294 680.3303,347.1016 512.2321,396.7465 	"/>
	<polygon class="st1" points="643.9784,209.4735 516.1212,0.5 516.6824,186.8584 	"/>
	<polygon class="st1" points="516.1212,0.5 405.7909,153.0976 516.6824,186.8584 	"/>
	<polygon class="st1" points="516.6824,186.8584 544.6423,281.2816 643.9784,209.4735 	"/>
	<polygon class="st1" points="350.1555,229.6138 388.0554,335.4653 516.6824,186.8584 	"/>
	<polygon class="st1" points="388.0554,335.4653 544.6423,281.2816 516.6824,186.8584 	"/>
	<polygon class="st1" points="932.5658,495.5431 912.4892,199.6688 875.634,370.283 	"/>
	<polygon class="st1" points="912.4892,199.6688 821.1899,315.9647 875.634,370.283 	"/>
	<polygon class="st1" points="914.7095,535.5892 932.5658,495.5431 875.634,370.283 	"/>
	<polygon class="st1" points="267.6937,407.8863 240.2898,327.4552 148.426,362.3324 	"/>
	<polygon class="st1" points="240.2898,327.4552 169.3058,177.3832 148.426,362.3324 	"/>
	<polygon class="st1" points="148.426,362.3324 250.6668,506.7639 267.6937,407.8863 	"/>
	<polygon class="st1" points="120.5151,466.3815 199.1869,524.5649 148.426,362.3324 	"/>
	<polygon class="st1" points="565.2618,492.7021 680.3303,347.1016 530.134,466.3815 	"/>
	<polygon class="st1" points="680.3303,347.1016 427.5888,470.0294 530.134,466.3815 	"/>
	<polygon class="st1" points="350.8451,528.204 427.5888,469.8898 530.134,466.3815 565.2618,492.566 	"/>
	<polygon class="st1" points="383.3605,396.662 512.2321,396.7465 388.0554,335.4653 	"/>
	<polygon class="st1" points="427.5888,469.8898 383.3605,396.662 512.2321,396.7465 	"/>
	<polygon class="st1" points="609.959,367.8351 680.3303,347.1016 544.6423,281.2816 	"/>
	<polygon class="st1" points="722.4261,231.5747 776.5926,403.1026 821.1899,315.9647 	"/>
	<polygon class="st1" points="673.8018,524.1011 810.0754,435.2205 776.5926,403.1026 	"/>
	<polygon class="st1" points="683.8264,466.3453 565.2618,492.566 673.8018,524.1011 	"/>
	<polygon class="st1" points="680.3303,347.1016 565.2618,492.566 683.8264,466.3453 	"/>
	<polygon class="st1" points="722.4261,231.5747 680.3303,347.1016 683.8264,466.3453 776.5926,403.1026 	"/>
	<polygon class="st1" points="240.2898,327.4552 267.6937,407.8863 322.5974,339.6458 	"/>
	<polygon class="st1" points="240.2898,327.4552 169.3058,177.3832 322.5974,339.6458 	"/>
	<polygon class="st1" points="169.3058,177.3832 89.0843,389.9079 148.426,362.3324 	"/>
	<polygon class="st1" points="89.0843,389.9079 0.5,432.957 60.4029,470.0294 148.426,362.3324 	"/>
	<polygon class="st1" points="643.9784,209.4735 759.5692,177.4857 722.4261,231.5747 	"/>
	<polygon class="st1" points="405.7909,153.0976 350.1555,229.6138 516.6824,186.8584 	"/>
	<polygon class="st1" points="544.6423,281.2816 643.9784,209.4735 722.4261,231.5747 	"/>
	<polygon class="st1" points="875.634,370.283 776.5926,403.1026 914.7095,535.5892 	"/>
	<polygon class="st1" points="821.1899,315.9647 776.5926,403.1026 875.634,370.283 	"/>
	<g>
		<polygon class="st1" points="0.5,432.957 124.5422,294.5038 89.0843,389.9079 		"/>
		<polygon class="st1" points="17.8037,413.6425 50.1698,260.4 77.7504,347.7938 		"/>
		<polygon class="st1" points="50.1698,260.4 124.5422,294.5038 77.7504,347.7938 		"/>
	</g>
	<polygon class="st1" points="199.1869,524.5649 250.6668,506.7639 148.426,362.3324 	"/>
	<polygon class="st1" points="60.4029,470.0294 120.5151,466.3815 148.426,362.3324 	"/>
	<polygon class="st1" points="696.4572,510.9668 772.819,535.5186 810.0754,435.2205 	"/>
	<polygon class="st1" points="772.819,535.5186 833.1227,508.6843 810.0754,435.2205 	"/>
	<polygon class="st1" points="833.1227,508.6843 914.7095,535.5892 810.7514,435.8689 	"/>
	<polygon class="st1" points="932.5658,495.5431 1070.5,518.5571 912.4892,199.6688 	"/>
</g>
</svg>
