<?xml version="1.0" encoding="utf-8"?>
<!-- Generator: Adobe Illustrator 21.0.0, SVG Export Plug-In . SVG Version: 6.00 Build 0)  -->
<svg version="1.1" id="Слой_3" xmlns="http://www.w3.org/2000/svg" xmlns:xlink="http://www.w3.org/1999/xlink" x="0px" y="0px"
	 viewBox="0 0 188.4074 67.1009" style="enable-background:new 0 0 188.4074 67.1009;" xml:space="preserve">
<style type="text/css">
	.st0{fill:#000000;}
	.st1{fill:#FF001F;}
	.st2{fill:#B4001F;}
</style>
<g>
	<g>
		<path class="st0" d="M60.76,30.0013h-3.3618v-3.8838H60.76v-1.5654c0-7.5938,4.5796-10.0283,9.4492-10.0283
			c0.9854,0,1.9126,0.1162,1.9126,0.1162v4c0,0-0.7534-0.1162-1.4492-0.1162c-3.4199,0-5.2749,1.8555-5.2749,6.0283v1.5654h6.4346
			v3.8838h-6.4346v26.2598H60.76V30.0013z"/>
		<path class="st0" d="M76.8752,14.3499h4.5796v41.9111h-4.5796V14.3499z"/>
		<path class="st0" d="M100.7585,25.3636c8.8691,0,14.3179,6.377,14.3179,15.4199c0,0.1738,0,0.8115-0.0581,1.3916H90.8459
			c0.0576,6.7236,4.5791,10.7822,10.8398,10.7822c5.1011,0,7.9419-2.667,9.3906-4.6963l3.0146,2.2031
			c-1.6812,2.8408-5.623,6.5508-12.4634,6.5508c-9.1587,0-15.4775-6.4346-15.4775-15.71
			C86.1501,31.6829,92.7585,25.3636,100.7585,25.3636z M110.3811,38.7542c-0.29-6.2598-4.6377-9.4482-9.6226-9.4482
			c-4.9277,0-9.333,3.7676-9.6807,9.4482H110.3811z"/>
		<path class="st0" d="M121.801,48.4935c1.2754,2.377,3.4204,4.6377,7.5361,4.6377c3.0142,0,5.5649-1.7393,5.5649-4.8115
			c0-6.9561-15.1299-4.5801-15.1299-14.7822c0-5.1006,4.2319-8.1738,9.6807-8.1738c5.623,0,8.5215,3.5361,9.333,5.7969
			l-3.3623,1.9131c-0.8115-1.623-2.3765-3.8838-6.2603-3.8838c-2.7827,0-4.9854,1.5654-4.9854,4.1738
			c0,6.7822,15.1875,4.2314,15.1875,14.7236c0,5.333-4.4053,8.9277-10.2603,8.9277c-6.3184,0-9.1592-3.5947-10.4922-6.4346
			L121.801,48.4935z"/>
		<path class="st0" d="M144.3508,26.1175h4.4053v4.7539c0.7539-1.1016,3.9419-5.5078,10.4927-5.5078
			c8.5791,0,14.7236,6.5508,14.7236,15.7676c0,9.333-5.8545,15.8838-14.376,15.8838c-6.3184,0-9.7388-4.0576-10.666-5.623v15.709
			h-4.5796V26.1175z M159.0744,52.8411c5.9131,0,10.2026-4.8115,10.2026-11.71c0-7.0723-4.5215-11.5938-10.3184-11.5938
			c-6.2607,0-10.2026,5.2754-10.2026,11.5938C148.7561,48.5511,153.3938,52.8411,159.0744,52.8411z"/>
		<path class="st0" d="M182.1467,15.22c1.7969,0,3.188,1.3906,3.188,3.1299c0,1.7969-1.3911,3.1885-3.188,3.1885
			c-1.7393,0-3.1304-1.3916-3.1304-3.1885C179.0163,16.6107,180.4074,15.22,182.1467,15.22z M179.886,26.1175h4.5796v30.1436
			h-4.5796V26.1175z"/>
	</g>
	<g>
		<g>
			<path class="st1" d="M8.8765,54.5605c5.7027-16.9225,21.182-27.7819,38.0259-28.4265c-2.0291-1.3604-4.2495-2.5012-6.6758-3.3189
				C25.5081,17.8552,9.5558,25.766,4.5959,40.4844c-2.6854,7.9688-1.5726,16.2854,2.3254,23.0372
				C7.2397,60.5309,7.8761,57.529,8.8765,54.5605z"/>
			<path class="st2" d="M5.8534,53.0339c1.0765-16.883,15.6357-29.6967,32.5186-28.6201c2.9333,0.187,5.7399,0.7895,8.376,1.732
				c0.0518-0.0022,0.1026-0.0098,0.1543-0.0118c-2.0291-1.3604-4.2494-2.5012-6.6758-3.3189
				C25.5082,17.8552,9.5559,25.766,4.5959,40.4844c-2.6854,7.9687-1.5726,16.2854,2.3253,23.0372
				c0.007-0.0653,0.0188-0.1308,0.0262-0.1961C6.0255,60.0685,5.6257,56.6044,5.8534,53.0339z"/>
		</g>
		<path class="st1" d="M8.8003,49.7721C15.4306,24.9837,36.6351,7.9958,60.7304,5.5312c-3.0342-1.7653-6.3225-3.1982-9.8767-4.1488
			C29.2939-4.3844,7.1415,8.4184,1.3748,29.9782C-1.7474,41.651,0.6088,53.4754,6.8159,62.8011
			C6.9991,58.4834,7.6372,54.1204,8.8003,49.7721z"/>
		<path class="st2" d="M4.3256,47.8594c0-24.3088,19.7063-44.015,44.015-44.015c4.2235,0,8.3033,0.6073,12.1697,1.7178
			c0.0741-0.0078,0.1463-0.0234,0.2201-0.031c-3.0341-1.7652-6.3224-3.1982-9.8766-4.1489
			C29.294-4.3844,7.1416,8.4184,1.3748,29.9782c-3.1222,11.6728-0.766,23.4971,5.441,32.8229
			c0.004-0.0943,0.015-0.1892,0.0197-0.2835C5.2156,57.9313,4.3256,53.0003,4.3256,47.8594z"/>
	</g>
</g>
</svg>
